# xmcd
#
# Track frame offsets: 
#        150
#        26652
#        49862
#        79637
#        103595
#        124055
#        155017
#        178115
#        199787
#        221422
#
# Disc length: 3243 seconds
#
# Revision: 2
# Processed by: cddbd v1.5.1PL0 Copyright (c) Steve Scherf et al.
# Submitted via: ExactAudioCopy v0.95a5
#
DISCID=850ca90a
DTITLE=Calloway - All The Way
DYEAR=1989
DGENRE=R&B/Soul
TTITLE0=Sir Lancelot
TTITLE1=I Wanna Be Rich
TTITLE2=Love Circles
TTITLE3=Freaks Compete
TTITLE4=You Are My Everything
TTITLE5=All The Way
TTITLE6=I Want You
TTITLE7=Sugar Free
TTITLE8=You Can Count On Me
TTITLE9=Holiday
EXTD=
EXTT0=
EXTT1=
EXTT2=
EXTT3=
EXTT4=
EXTT5=
EXTT6=
EXTT7=
EXTT8=
EXTT9=
PLAYORDER=
